<svg xmlns="http://www.w3.org/2000/svg" xmlns:xlink="http://www.w3.org/1999/xlink" viewBox="0 0 330 51"><defs><style>.cls-1{fill:none;}.cls-2{isolation:isolate;}.cls-3{clip-path:url(#clip-path);}.cls-4{fill:url(#linear-gradient);}.cls-5{fill:#fefefe;}.cls-6{fill:#528e2c;}.cls-7{fill:#587a25;}.cls-10,.cls-12,.cls-7{opacity:0.3;}.cls-11,.cls-12,.cls-14,.cls-7,.cls-8{mix-blend-mode:multiply;}.cls-10,.cls-8{fill:#83bc29;}.cls-11,.cls-8{opacity:0.4;}.cls-9{fill:#69b431;}.cls-10{mix-blend-mode:screen;}.cls-11{fill:#36832e;}.cls-12,.cls-13,.cls-14{fill:#a0c519;}.cls-14{opacity:0.5;}</style><clipPath id="clip-path"><rect class="cls-1" width="330" height="51"/></clipPath><linearGradient id="linear-gradient" x1="164.98" y1="52.2" x2="164.98" y2="-33.84" gradientUnits="userSpaceOnUse"><stop offset="0" stop-color="#f3faff"/><stop offset="0.76" stop-color="#1ac9ff"/></linearGradient></defs><g class="cls-2"><g id="Layer_1" data-name="Layer 1"><g class="cls-3"><rect class="cls-4" x="-2.25" y="-3.71" width="334.45" height="56.75"/><path class="cls-5" d="M27.14,33.5a2.67,2.67,0,0,0-2.46-.81,4.69,4.69,0,0,0-.37-3.89c-1.32-2.34-3.75-2.46-5.65-2.13a6.11,6.11,0,0,0-3.49,2.15,6.73,6.73,0,0,0-.29-1.51c-.54-1.68-1.59-2.29-2.74-2.23a7.19,7.19,0,0,0-.31-1.56c-.83-2.43-2.56-3.37-4.34-3.06a5.53,5.53,0,0,0-4.11,3.32A4.63,4.63,0,0,0,3.19,27,3.13,3.13,0,0,0,2,27.15,3.35,3.35,0,0,0,0,29.7s0,.08,0,.13A4.77,4.77,0,0,0-4.46,28.5c-2.1.52-4.73,3.91-3.78,7.29a6.35,6.35,0,0,0,5.1,4.34,7.78,7.78,0,0,0,4.57-1.08,6.14,6.14,0,0,0,6.51,3.82,9.7,9.7,0,0,0,5.54-3.38c1.73,2.16,4,3,6.36,1.54a4.32,4.32,0,0,0,1.85-2.67,4.27,4.27,0,0,0,4.07-.48C26.71,37.21,28.41,35.1,27.14,33.5Z"/><path class="cls-5" d="M56.3,25.22a2.65,2.65,0,0,0-2.45-.82,4.73,4.73,0,0,0-.38-3.89c-1.32-2.34-3.75-2.46-5.65-2.13a6.22,6.22,0,0,0-3.49,2.15A6.84,6.84,0,0,0,44,19c-.54-1.68-1.59-2.29-2.74-2.23A7.19,7.19,0,0,0,41,15.23c-.83-2.43-2.56-3.37-4.34-3.06a5.54,5.54,0,0,0-4.11,3.33,4.63,4.63,0,0,0-.19,3.2,2.77,2.77,0,0,0-1.18.16,3.38,3.38,0,0,0-2,2.55s0,.09,0,.13a4.74,4.74,0,0,0-4.42-1.32c-2.1.51-4.72,3.9-3.78,7.28A6.34,6.34,0,0,0,26,31.85a7.79,7.79,0,0,0,4.57-1.09,6.14,6.14,0,0,0,6.51,3.82,9.64,9.64,0,0,0,5.55-3.38c1.72,2.16,4,3.05,6.35,1.54a4.38,4.38,0,0,0,1.86-2.66,4.29,4.29,0,0,0,4.06-.49C55.87,28.93,57.57,26.82,56.3,25.22Z"/><path class="cls-5" d="M55.55,31.3a2.68,2.68,0,0,0-2.46-.81,4.71,4.71,0,0,0-.37-3.9c-1.32-2.34-3.75-2.46-5.66-2.12a6.12,6.12,0,0,0-3.48,2.15,7.34,7.34,0,0,0-.29-1.51c-.54-1.69-1.59-2.29-2.74-2.23a7,7,0,0,0-.31-1.56c-.83-2.44-2.56-3.37-4.34-3.07a5.57,5.57,0,0,0-4.11,3.33,4.63,4.63,0,0,0-.19,3.2,2.78,2.78,0,0,0-1.18.17,3.35,3.35,0,0,0-2,2.55s0,.08,0,.12A4.79,4.79,0,0,0,24,26.3c-2.1.51-4.73,3.9-3.78,7.28a6.34,6.34,0,0,0,5.09,4.35,7.8,7.8,0,0,0,4.58-1.08,6.12,6.12,0,0,0,6.51,3.81,9.67,9.67,0,0,0,5.55-3.38c1.72,2.17,4,3,6.34,1.54a4.32,4.32,0,0,0,1.87-2.66,4.26,4.26,0,0,0,4.06-.48C55.12,35,56.82,32.9,55.55,31.3Z"/><path class="cls-5" d="M87.89,30.58a2.66,2.66,0,0,0-2.45-.82,4.73,4.73,0,0,0-.38-3.89c-1.32-2.34-3.75-2.46-5.65-2.12a6.14,6.14,0,0,0-3.49,2.15,6.62,6.62,0,0,0-.28-1.51C75.1,22.7,74,22.1,72.9,22.15a6.46,6.46,0,0,0-.32-1.55c-.83-2.44-2.56-3.38-4.34-3.07a5.59,5.59,0,0,0-4.11,3.33,4.63,4.63,0,0,0-.19,3.2,2.8,2.8,0,0,0-1.18.17,3.35,3.35,0,0,0-2,2.54c0,.05,0,.09,0,.13a4.76,4.76,0,0,0-4.41-1.32c-2.11.51-4.73,3.9-3.79,7.28a6.34,6.34,0,0,0,5.1,4.35,7.79,7.79,0,0,0,4.57-1.09,6.13,6.13,0,0,0,6.52,3.82,9.65,9.65,0,0,0,5.54-3.38c1.73,2.17,4,3,6.35,1.54a4.35,4.35,0,0,0,1.86-2.66A4.28,4.28,0,0,0,86.51,35C87.46,34.29,89.16,32.18,87.89,30.58Z"/><path class="cls-5" d="M113.94,31.27a2.66,2.66,0,0,0-2.45-.81,4.73,4.73,0,0,0-.37-3.89c-1.33-2.34-3.76-2.46-5.66-2.13A6.25,6.25,0,0,0,102,26.6a6.81,6.81,0,0,0-.28-1.52c-.54-1.68-1.6-2.29-2.74-2.23a6.65,6.65,0,0,0-.32-1.56c-.83-2.43-2.56-3.37-4.34-3.06a5.53,5.53,0,0,0-4.1,3.33,4.55,4.55,0,0,0-.2,3.19,3,3,0,0,0-1.18.18,3.35,3.35,0,0,0-2,2.54.59.59,0,0,1,0,.13,4.72,4.72,0,0,0-4.41-1.32c-2.1.51-4.73,3.9-3.79,7.28a6.36,6.36,0,0,0,5.1,4.35,7.87,7.87,0,0,0,4.57-1.09,6.16,6.16,0,0,0,6.52,3.82,9.62,9.62,0,0,0,5.54-3.39c1.73,2.17,4,3.06,6.35,1.55a4.34,4.34,0,0,0,1.86-2.66,4.28,4.28,0,0,0,4.06-.49C113.51,35,115.21,32.87,113.94,31.27Z"/><path class="cls-5" d="M153.46,24.64A4.09,4.09,0,0,0,150,23.3h-.14c-1.88-4.69-7.45-5.45-9-.92a4.91,4.91,0,0,0-1.09-2.4,1.34,1.34,0,0,0-1.07-.47,10,10,0,0,0-.46-3.47c-.68-2-2-2.34-3.09-2a5.26,5.26,0,0,0-3,3.45,5.34,5.34,0,0,0-.28,1.33,2.74,2.74,0,0,0-2.28-1.21c-1.19,0-2.68.82-3.23,3.08a5.25,5.25,0,0,0-.1,1.93c-.59-.74-1.38-.56-1.92.29a6.82,6.82,0,0,0-.28-1,2.88,2.88,0,0,0-3.5-2,7,7,0,0,0-4.82,5.43,1.86,1.86,0,0,0-.38-.44c-.62-.44-1.33.52-1.45,1.77v.12c-2.09-.6-4.25-.11-5.84,2.91a4.94,4.94,0,0,0,.62,5.57,7.37,7.37,0,0,0,4.72,2.14,7.46,7.46,0,0,0,3.86-.95l.43-.19a3.71,3.71,0,0,0,3.54,2.32,6.7,6.7,0,0,0,4.43-1.5,4.08,4.08,0,0,0,3.54,2.57,3.91,3.91,0,0,0,2.94-1.9A3.68,3.68,0,0,0,136,38.94a5.88,5.88,0,0,0,2.92-2.2c.15-.2.3-.43.46-.68,2.67,1.31,5.53.9,8.24,0a11,11,0,0,0,5.64-3.67C154.81,30.46,155.12,26.74,153.46,24.64Z"/><path class="cls-5" d="M185.68,32.5a3,3,0,0,0-2.63-.81,4.39,4.39,0,0,0-.4-3.89c-1.42-2.34-4-2.46-6.06-2.13a6.66,6.66,0,0,0-3.73,2.15,6.23,6.23,0,0,0-.31-1.51,2.86,2.86,0,0,0-2.94-2.23,6.19,6.19,0,0,0-.33-1.56c-.89-2.43-2.75-3.37-4.65-3.06a5.87,5.87,0,0,0-4.4,3.32A4.32,4.32,0,0,0,160,26a3.64,3.64,0,0,0-1.27.17,3.41,3.41,0,0,0-2.17,2.55s0,.08,0,.13a5.35,5.35,0,0,0-4.73-1.33c-2.26.52-5.07,3.91-4.06,7.29a6.72,6.72,0,0,0,5.46,4.34,8.81,8.81,0,0,0,4.9-1.08c1.2,3,4.53,4.09,7,3.82a10.59,10.59,0,0,0,5.94-3.38c1.86,2.16,4.26,3,6.81,1.54a4.35,4.35,0,0,0,2-2.67,4.86,4.86,0,0,0,4.36-.48C185.22,36.21,187,34.1,185.68,32.5Z"/><path class="cls-5" d="M216.93,24.22a3,3,0,0,0-2.63-.82,4.39,4.39,0,0,0-.4-3.89c-1.42-2.34-4-2.46-6.06-2.13a6.77,6.77,0,0,0-3.73,2.15A6.86,6.86,0,0,0,203.8,18a2.86,2.86,0,0,0-2.94-2.23,6.66,6.66,0,0,0-.33-1.56c-.89-2.43-2.75-3.37-4.66-3.06a5.86,5.86,0,0,0-4.39,3.33,4.32,4.32,0,0,0-.21,3.2,3.2,3.2,0,0,0-1.27.16,3.45,3.45,0,0,0-2.17,2.55s0,.09,0,.13a5.31,5.31,0,0,0-4.73-1.32c-2.26.51-5.07,3.9-4.06,7.28a6.7,6.7,0,0,0,5.46,4.35,8.89,8.89,0,0,0,4.91-1.09c1.19,3,4.52,4.1,7,3.82a10.47,10.47,0,0,0,5.94-3.38c1.85,2.16,4.26,3.05,6.81,1.54a4.4,4.4,0,0,0,2-2.66,4.86,4.86,0,0,0,4.35-.49C216.47,27.93,218.29,25.82,216.93,24.22Z"/><path class="cls-5" d="M216.13,30.3a3,3,0,0,0-2.63-.81,4.48,4.48,0,0,0-.4-3.9c-1.42-2.34-4-2.46-6.06-2.12a6.65,6.65,0,0,0-3.74,2.15,6.23,6.23,0,0,0-.31-1.51,2.84,2.84,0,0,0-2.93-2.23,6.45,6.45,0,0,0-.34-1.56c-.89-2.44-2.74-3.37-4.65-3.07a5.91,5.91,0,0,0-4.4,3.33,4.32,4.32,0,0,0-.21,3.2,3.16,3.16,0,0,0-1.26.17A3.42,3.42,0,0,0,187,26.5a.5.5,0,0,1,0,.12,5.37,5.37,0,0,0-4.73-1.32c-2.25.51-5.07,3.9-4.06,7.28a6.71,6.71,0,0,0,5.47,4.35,8.85,8.85,0,0,0,4.9-1.08c1.19,3,4.52,4.09,7,3.81a10.5,10.5,0,0,0,5.94-3.38c1.85,2.17,4.25,3,6.8,1.54a4.35,4.35,0,0,0,2-2.66,4.84,4.84,0,0,0,4.35-.48C215.67,34,217.49,31.9,216.13,30.3Z"/><path class="cls-5" d="M250.78,29.58a3,3,0,0,0-2.62-.82,4.43,4.43,0,0,0-.41-3.89c-1.41-2.34-4-2.46-6.05-2.12A6.65,6.65,0,0,0,238,24.9a6.13,6.13,0,0,0-.31-1.51,2.87,2.87,0,0,0-2.93-2.24,6.48,6.48,0,0,0-.34-1.55c-.89-2.44-2.74-3.38-4.65-3.07a5.91,5.91,0,0,0-4.4,3.33,4.32,4.32,0,0,0-.21,3.2,3.16,3.16,0,0,0-1.26.17,3.41,3.41,0,0,0-2.18,2.54c0,.05,0,.09,0,.13a5.34,5.34,0,0,0-4.73-1.32c-2.26.51-5.07,3.9-4.06,7.28a6.71,6.71,0,0,0,5.47,4.35,8.86,8.86,0,0,0,4.9-1.09c1.19,3,4.52,4.1,7,3.82a10.53,10.53,0,0,0,5.94-3.38c1.85,2.17,4.26,3,6.8,1.54a4.3,4.3,0,0,0,2-2.66,4.88,4.88,0,0,0,4.36-.48C250.32,33.29,252.15,31.18,250.78,29.58Z"/><path class="cls-5" d="M278.7,30.27a3,3,0,0,0-2.63-.81,4.42,4.42,0,0,0-.4-3.89c-1.42-2.34-4-2.46-6.06-2.13a6.73,6.73,0,0,0-3.73,2.16,6.83,6.83,0,0,0-.31-1.52,2.86,2.86,0,0,0-2.94-2.23,6.66,6.66,0,0,0-.33-1.56c-.89-2.43-2.75-3.37-4.66-3.06a5.86,5.86,0,0,0-4.39,3.33,4.29,4.29,0,0,0-.21,3.19,3.31,3.31,0,0,0-3.44,2.72.59.59,0,0,0,0,.13,5.31,5.31,0,0,0-4.73-1.32c-2.26.51-5.07,3.9-4.06,7.28a6.71,6.71,0,0,0,5.46,4.35,8.93,8.93,0,0,0,4.9-1.09c1.2,3,4.53,4.09,7,3.82a10.44,10.44,0,0,0,5.94-3.39c1.85,2.17,4.26,3.06,6.81,1.55a4.4,4.4,0,0,0,2-2.66,4.86,4.86,0,0,0,4.35-.49C278.24,34,280.06,31.87,278.7,30.27Z"/><path class="cls-5" d="M321.05,23.64a4.57,4.57,0,0,0-3.69-1.34h-.15c-2-4.69-8-5.45-9.65-.92a4.88,4.88,0,0,0-1.17-2.4,1.49,1.49,0,0,0-1.15-.47,9.33,9.33,0,0,0-.49-3.47c-.73-2-2.11-2.34-3.31-2a5.4,5.4,0,0,0-3.21,3.45,5,5,0,0,0-.3,1.33,3,3,0,0,0-2.44-1.21A3.69,3.69,0,0,0,292,19.66a5,5,0,0,0-.11,1.93c-.63-.74-1.47-.56-2.06.29a6.87,6.87,0,0,0-.29-1,3.14,3.14,0,0,0-3.76-2c-1.4.21-4.78,2.32-5.16,5.43a1.94,1.94,0,0,0-.41-.44c-.67-.44-1.43.52-1.55,1.77a.49.49,0,0,1,0,.12c-2.23-.6-4.55-.11-6.25,2.91a4.67,4.67,0,0,0,.67,5.57,8.16,8.16,0,0,0,5.06,2.14,8.44,8.44,0,0,0,4.13-.95l.46-.19a4,4,0,0,0,3.79,2.32,7.53,7.53,0,0,0,4.75-1.5,4.37,4.37,0,0,0,3.79,2.57,4.23,4.23,0,0,0,3.15-1.9,4.14,4.14,0,0,0,4.13,1.22,6.34,6.34,0,0,0,3.13-2.2c.15-.2.32-.43.49-.68,2.86,1.31,5.93.9,8.83,0a11.93,11.93,0,0,0,6-3.67C322.49,29.46,322.83,25.74,321.05,23.64Z"/><path class="cls-6" d="M323.19,27a115.48,115.48,0,0,0-20,1.14c-6.38,1.1-12.46,2.61-19.22,3.16-7.16.58-14.41.46-21.65.62-7.65.17-15.32.06-23,0s-15.14-.11-22.69.06c-7.87.19-15.54.68-23.28,1.34-14.78,1.25-29.27,2.29-44.35,2.1-15.67-.2-31.25-1-46.89-1.44-7.61-.22-15.18-.37-22.79-.12-7,.24-14.34.7-21.34.26-7.8-.49-15.6-1-23.45-1.3-5.91-.22-11.83-.26-17.7-.62a114.29,114.29,0,0,1-19.12-2.5V53H332.21v-26C329.2,27.06,326.18,27,323.19,27Z"/><path class="cls-7" d="M323.19,27a115.48,115.48,0,0,0-20,1.14c-1.4.24-2.78.5-4.15.77l5.76-.23c5.34-.22,10.69-.39,16.05-.3.2,0,.21.12,0,.15-5.57,1-11.28,1.92-17,2.8,3,.11,5.93.12,8.9.12.21,0,.21.12.05.15l-1.18.21c-19.34,3.41-40.32,3-60.58,2.1-.18,0-.24-.13,0-.16,2.35-.27,4.65-.61,7-.92-4.44,0-8.86-.15-13.3-.16-.19,0-.22-.12,0-.15,1.44-.19,2.89-.36,4.35-.52l-9.68-.07c-7.56-.06-15.14-.11-22.69.06q-4.69.12-9.33.36c-1.45.19-2.89.4-4.32.61-4.76.7-9.48,1.46-14.33,2s-10.06.87-15.11,1.22c-5.23.36-10.49.69-15.78.84s-10.5.11-15.75-.09c-16.42-.64-32.53-2.55-48.92-3.17-4.59-.07-9.17-.06-13.77.09-6.18.21-12.61.59-18.85.38q-3.4.11-6.78.25c-4.57.2-9.11.52-13.69.61,4.56.26,9.12.56,13.57,1.1.2,0,.13.14,0,.15-1.43.09-2.85.21-4.26.34-7.54.7-15,1.67-22.62,2.09-6.85.38-14.67.43-20.49-1.52-.15-.05-.09-.13.08-.14,2.78-.15,5.52-.41,8.24-.72-2.45-.58-5.17-.89-7.65-1.44-.16,0-.08-.15.08-.15H20.54C15,32.92,7.69,32.74,1.83,31.13c-.12,0-.1-.13,0-.14.55-.06,1.09-.11,1.64-.15-2-.31-3.92-.68-5.76-1.13V53H332.21v-26C329.2,27.06,326.18,27,323.19,27Z"/><path class="cls-7" d="M331.79,30.89c-5.07.28-10,1-14.84,1.62-6.63.89-13.34,1.78-20.1,2.42-7,.65-14,.84-21.09.85-14.64,0-29.17-.81-43.71-1.49-6.75-.31-13.56-.53-20.33-.25-7.24.29-14.22,1.25-21.32,1.9-6.65.62-13.34,1.13-19.93,1.85-3.18.35-6.72.75-10.16.79q4.11.38,8.23.72c2.16.18,4.33.33,6.47.55,4.15.43,8.27.93,12.49,1.21,3.53.23,8.27.52,11.31-.54.18-.06.34.07.17.13-2.44.85-6,.81-8.93.7-3.8-.16-7.54-.54-11.25-.94s-7.41-.71-11.14-1c-3.12-.26-6.22-.55-9.33-.83a29.72,29.72,0,0,1-3.44-.3l-4.69-.4c-6.7-.54-13.45-.88-20.22-1.18s-13.3-.68-20-.88c-13.3-.39-26.64-.1-39.86.61-6.74.36-13.44.83-20.13,1.37-3.28.26-6.57.54-9.84.84s-6.55.65-9.86.86a185,185,0,0,1-18.84-.17c-4.58-.17-9.14-.51-13.73-.64V53H332.21V30.87Z"/><path class="cls-8" d="M111.34,42.76h-.26a.08.08,0,0,1,0-.14c.12-.08.24-.16.37-.23l-.17.06c-.21.16-.41.32-.6.49Z"/><path class="cls-9" d="M317.92,33.44c-7.3.53-14.47,1.39-21.76,2-14.83,1.15-30,1-45,.43S221,34.13,206,34.7c-14.27.54-28.17,2.2-42.37,2.95-15,.8-30.08.15-45.1-.39-15.18-.55-30.22-.84-45.38.05-14.86.86-29.53,2.27-44.44,3-10.32.48-20.63,0-31-.22V53H332.21v-20C327.44,33,322.7,33.08,317.92,33.44Z"/><path class="cls-10" d="M52.73,39.05c.17,0,.22.1.08.14a41.42,41.42,0,0,1-6.65,1.07c5.44.21,10.88.07,16.29-.22.17,0,.24.12.09.15-1.86.38-3.85.57-5.82.79a159.47,159.47,0,0,0,17.43-1c.18,0,.3.1.13.14-.69.18-1.4.35-2.07.55,4.46,0,8.71-.79,13-1.17s9-.24,13.54-.28c-1.33-.18-2.66-.34-4-.47-.19,0-.14-.15,0-.15,8-.05,16,.16,23.9.53-.54-.11-1.09-.22-1.64-.31-.17,0-.16-.16,0-.15,4.39.22,8.81.24,13.21.3a13,13,0,0,0-1.63-.36c-.53-.05-1-.1-1.56-.17-.22,0-.12-.16.09-.15.54,0,1,.1,1.56.17a79.82,79.82,0,0,0,13.3,0c1.51-.11,3-.25,4.5-.4-9.36-.05-18.71-.43-28.06-.76-15.18-.55-30.22-.84-45.38.05-5.89.34-11.75.77-17.61,1.2-1.58.21-3.16.4-4.75.57C51.44,39.08,52.09,39.07,52.73,39.05Z"/><path class="cls-10" d="M164.74,38.43c.19,0,.23.13,0,.15-4.51.51-9.14.68-13.71,1A28.53,28.53,0,0,0,156,40c.16,0,.24.11.09.14a29.22,29.22,0,0,1-5.78.55c3.58.63,7.27,1.08,11,1.43a65.55,65.55,0,0,0,8.49-.57c-1.18-.13-2.37-.25-3.58-.32-.21,0-.22-.16,0-.16q9.47.35,18.95.23c.2,0,.22.13.05.15-1.17.19-2.37.35-3.56.51,5.21-.26,10.45-.36,15.66-.63,5.61-.29,11.38-.82,17-.49.15,0,.25.11.08.15-1.14.25-2.35.44-3.53.65,6.11-.26,12.11-.88,18.21-1.18.18,0,.2.1.08.14a22.19,22.19,0,0,1-2.21.59c6.54-.9,12.93-2,19.62-2.72-1.87,0-3.73.07-5.59.07-.19,0-.23-.13,0-.15,5.12-.56,10.38-.62,15.61-.82-2-.24-4.07-.23-6.06-.49-.18,0-.14-.15,0-.15,5.09-.07,10.21.19,15.27-.1-1.9-.24-3.82-.47-5.72-.72q-4.48-.11-8.95-.26c-15-.53-30.17-1.69-45.2-1.12-11.26.43-22.29,1.55-33.42,2.37-4.51.5-9,1-13.53,1.48C161,38.58,162.84,38.44,164.74,38.43Z"/><path class="cls-11" d="M322.39,33.19c.92,0,1.83.06,2.75.12a26,26,0,0,1,4.79.6c1.13.29,2.26,1,.78,1.46a15.24,15.24,0,0,1-3.35.44c-1.43.08-2.88.1-4.32.1-4.25,0-8.52.06-12.77.13-3.74.06-7.44.41-11.15.59C291,37.27,283,38.12,275,39.09,267.73,40,260.55,41,253.32,42a51.12,51.12,0,0,1-5.59.72l-4,.47c-.16,0-.29-.08-.17-.14.34-.14.68-.28,1-.41a80.3,80.3,0,0,1-12.43,1.52c-.16,0-.23-.11-.08-.14.71-.16-15.88,1.42-25.07,1.68-5.36.14-10.71.12-16.07,0-2.35-.05-4.69-.09-7-.17a28.81,28.81,0,0,1-5.61-.58c-.16,0-.06-.14.09-.15l1.66-.08c-.94,0-1.87-.1-2.8-.15-2-.12-4-.26-6-.42-4.16-.34-8.28-.74-12.4-1.16-10.4-1.05-20.74-2.08-31.41-2.33s-21.45-.21-32.13.19c-10.9.42-21.76,1.18-32.7,1.37-5.33.1-10.69.1-16,.08s-10.47-.12-15.62-.57c-.16,0-.16-.13,0-.15,1.39-.11,2.79-.2,4.15-.38-1.33,0-2.66,0-4-.08-.2,0-.13-.15.05-.15,5.06-.22,10-.78,15-1.3-1.86,0-3.72.07-5.58.07-.17,0-.22-.12-.06-.15q-5.93.4-11.88.69c-10.32.48-20.63,0-31-.22V53H332.21v-20C328.93,33,325.66,33.06,322.39,33.19Z"/><path class="cls-12" d="M106.85,44.58a14.56,14.56,0,0,0,3.27-.84Q108.49,44.18,106.85,44.58Z"/><path class="cls-13" d="M288,38.38c-14.47,1.29-28.52,3.36-42.73,5.12-13.89,1.72-28.07,3.18-42.53,3.2-14.26,0-28.37-1-42.38-2.13-14.46-1.17-29-2.48-43.68-2.76-15.48-.29-31,.52-46.42,1-14.93.43-29.77.6-44.57-.55C16.35,41.49,7.1,40.53-2.25,40V53H332.21V36.78C317.42,36.69,302.48,37.08,288,38.38Z"/><path class="cls-12" d="M313,37c2.49.2,5,.45,7.44.7a45.34,45.34,0,0,1,8.88,1.48c.11,0,.11.12,0,.13-6.41.78-13.42.75-19.33,2.24,3.42.23,7-.24,10.27.33.13,0,.2.13,0,.14-3.33.19-6,.68-9,.79-3.27.13-6.48.49-9.63.9a33.24,33.24,0,0,1,6.87.22c.16,0,.16.12,0,.14-3.26.53-6.75.61-10.1.95a28.93,28.93,0,0,1,3.84-.07c.14,0,.16.11,0,.14a114.65,114.65,0,0,1-11.84,1.73c-4.07.52-8.27,1.21-12.55.84-.15,0-.16-.11,0-.14l.36-.11c-2.23.27-4.48.51-6.75.69-1.79.15-3.58.32-5.38.43a18.82,18.82,0,0,1-4.18-.05c-.14,0-.16-.1,0-.15a24.69,24.69,0,0,0,2.48-.91c-4.75.61-9.06,1.82-14,2.18-.15,0-.29-.07-.16-.13.76-.32,1.7-.53,2.54-.8-6.22.38-12.13,1.72-18.52,1.5-.17,0-.24-.13,0-.15a101.68,101.68,0,0,0,19.45-3.39c-1.34.12-2.62.35-4,.42-.17,0-.23-.11-.09-.15,1.63-.39,3.31-.71,4.95-1.08-4.9.3-9.72.9-14.7.87-.15,0-.24-.11-.09-.14,1.51-.32,3.13-.51,4.6-.86-1.73.07-3.44.21-5.18.18-.19,0-.23-.13,0-.15,3.56-.45,6.92-1.16,10.38-1.74-1.13.07-2.26.12-3.41.1-.19,0-.23-.13,0-.15,5-.68,10.09-1.35,14.79-2.4-5.19.68-10.38,1.36-15.59,2-13.89,1.72-28.07,3.18-42.53,3.2-9.84,0-19.62-.46-29.34-1.14,1.34.25,2.82.38,4.16.51,3.14.31,6.21.56,9.42.63.18,0,.24.13,0,.15a48.19,48.19,0,0,1-7.31.14c1.68.29,3.55.27,5.3.48.17,0,.15.13,0,.15a48.53,48.53,0,0,1-12.5-.17,40.15,40.15,0,0,1,5.16,1.26c.11,0,.11.12,0,.14-6.33.74-12.76-.21-18.79-1.26A8.59,8.59,0,0,1,161,48.73c.05,0,0,.11-.1.12-.7,0-1.4,0-2.1,0l.61.26c.09,0,.05.11-.07.12a78.57,78.57,0,0,1-9,.38c-1,0-2.14,0-3.25,0l.33.13c.1,0,0,.14-.12.13-2.41-.14-5-.14-7.44-.25l.37.11c.16.05.06.15-.13.14-2.53-.17-5.09-.21-7.6-.42a32.76,32.76,0,0,1-4.38-.57,5.62,5.62,0,0,1,.77.47c.08.06,0,.13-.19.11-1.35-.16-2.75-.3-4-.54a3,3,0,0,1,.45.5s0,.09-.16.09a14.2,14.2,0,0,1-3.69-.43,20.89,20.89,0,0,0-4.06-.76c-3.29-.12-6.31.71-9.58.73-.17,0-.22-.1-.08-.14.74-.22,1.51-.42,2.28-.61-4.71.34-9.42.72-14.16,1-.14,0-.22-.09-.12-.13.72-.29,1.45-.56,2.21-.82-1.52.23-3.09.4-4.57.68-.17,0-.36,0-.21-.12a34.51,34.51,0,0,1,6.48-2,83.77,83.77,0,0,0-9.85,1.32c-.14,0-.34,0-.23-.1.36-.24.78-.46,1.19-.68-2.45.16-5,.52-7.25.9a38.63,38.63,0,0,1-6.65.82c-.14,0-.24-.09-.12-.14.61-.22,1.29-.4,1.93-.6A190,190,0,0,1,57,50c-.13,0-.24-.08-.12-.13.44-.16.9-.29,1.37-.41a61.09,61.09,0,0,1-7.89,0c-.12,0-.17-.1-.07-.13a17,17,0,0,1,1.74-.47q-1,0-2.07.09c-.18,0-.22-.11-.09-.14a84.06,84.06,0,0,1,9.48-1.92c-2,.09-4,.18-6.05.24-3.09.09-6.18,0-9.27.13-.17,0-.21-.1-.08-.14A47.52,47.52,0,0,1,48.78,46a53.29,53.29,0,0,0-6.69.14c-.17,0-.3-.09-.12-.14a22.91,22.91,0,0,1,2.44-.47c-5.34,0-10.89-.2-15.95.66-.19,0-.28-.09-.13-.14.65-.19,1.27-.4,1.93-.59a33.75,33.75,0,0,1-6,0c-.12,0-.18-.11,0-.14.55-.12,1.13-.21,1.69-.32-3.34-.33-6.84.09-10.21.05-.13,0-.24-.09-.12-.13a19.06,19.06,0,0,1,3-.92c-.8,0-1.61,0-2.43,0-.18,0-.23-.14,0-.15.78-.08,1.55-.17,2.33-.22a37,37,0,0,1-6.84-1.23c-.14,0-.09-.14.09-.14,3.79-.07,7.59-.11,11.38-.17l.68,0c-8.64-.7-17.26-1.56-26-2V53H332.21V36.78Q322.63,36.72,313,37Z"/><path class="cls-14" d="M234.33,51.25c-.15,0-.24-.1-.08-.14a19,19,0,0,1,1.93-.3c-1.91-.05-3.84,0-5.74-.09a15.91,15.91,0,0,1-5.28-.77c-.08,0,0-.12.07-.13,6.32-.49,12.47-1.33,18.48-2.35-3.59-.18-7.26.29-10.76-.26-.12,0-.19-.11,0-.14.82-.16,1.68-.29,2.49-.46a31.53,31.53,0,0,1-4.24-.07c-.18,0-.14-.12,0-.15,3.11-.59,6.63-.75,9.55-1.54-1.68,0-3.36,0-5-.1-.17,0-.2-.08-.13-.12a306.68,306.68,0,0,1-32.86,2.07q-6.16,0-12.31-.22l2,.38c.15,0,.09.12,0,.14a27.86,27.86,0,0,1-3.59.31c2,.2,4.14.21,6.16.41.14,0,.18.12.05.14-3.34.72-7,.73-10.58,1,.4.08.8.17,1.19.27.12,0,.1.12,0,.14a91.23,91.23,0,0,1-9.65.1c1.22.31,2.61.45,3.87.73.17,0,.06.13-.08.14-7.78.36-15.59.63-23.41.65-2,.1-4,.2-6,.35,3.21.29,6.48.37,9.66.69.17,0,.17.13,0,.15-3.95.4-8,.58-12,.7l-7.7.22h92.2s0-.08.11-.09c4.89-.67,9.91-1.13,14.71-1.92C242.92,51.15,238.64,51.38,234.33,51.25Z"/><path class="cls-14" d="M67,52.62c-2.47-.07-4.94-.11-7.36-.34-.15,0-.15-.11,0-.15a15,15,0,0,1,2.47-.5l-6,.07a50.37,50.37,0,0,1-6.14.17c-.13,0-.17-.12,0-.15.86-.16,1.77-.27,2.61-.46a33.37,33.37,0,0,0-4,0c-1.5.06-2.94.07-4.44,0-3-.06-5.92-.16-8.86-.37-4.56-.3-9.7-.4-13.59-1.66-.1,0-.12-.1,0-.13A53.82,53.82,0,0,1,27.88,48c-2.48-.13-4.91.32-7.4.2-.17,0-.23-.1-.09-.14.83-.25,1.68-.5,2.58-.69-2.09.07-4.19.13-6.29.11s-4.22-.18-6.33-.39c-2.8-.28-6.44-.53-8.33-1.62-.06,0-.07-.1,0-.12,2.86-.6,6.19-.39,9.27-.54-.86-.15-1.72-.29-2.57-.46-.13,0-.08-.12.05-.14,1.09-.11,2.19-.14,3.3-.15-2.76-.48-5.59-.88-8.34-1.39-.14,0-.17-.12,0-.15,1.74-.22,3.55-.17,5.33-.28-.72-.21-1.62-.28-2.34-.5-.13,0-.11-.11,0-.14a45.62,45.62,0,0,1,7.05-.36C8.49,40.76,3.14,40.33-2.25,40V53H74.92C72.29,52.86,69.68,52.69,67,52.62Z"/><path class="cls-14" d="M325.81,40.93c1.22.14,2.49.18,3.7.35.13,0,.18.11,0,.14-1.63.34-3.39.54-4.95.95,1.81.3,3.92-.07,5.63.45a19,19,0,0,1-2.83.6c-1.21.13-2.39.33-3.54.55-2.56.48-5.06,1-7.48,1.62-4.32,1.07-8.58,2.21-13.14,3.06,1.74-.09,3.46-.24,5.21-.21.13,0,.24.09.12.13a29.29,29.29,0,0,1-3.07.77,40.28,40.28,0,0,1,6-.18c.15,0,.16.11,0,.14a41.54,41.54,0,0,1-6.8,1.05c-2.76.3-5.59.41-8.42.48-5.72.15-11.56,0-17.24.43a28.74,28.74,0,0,0,3.87.3c.2,0,.23.12.05.15a81.51,81.51,0,0,1-9,.89c-2.39.14-4.77.28-7.16.44h65.34V40.31A62.78,62.78,0,0,0,325.81,40.93Z"/><path class="cls-5" d="M22.36,2.94A2.77,2.77,0,0,0,20,2.68c-.35-1.29-5.14-1.26-6.24-.9a5.82,5.82,0,0,0-1.18.59A3.07,3.07,0,0,0,11.3,2a1.45,1.45,0,0,0-.94.32c0-.84-1-1.18-1.64-1.18A2.46,2.46,0,0,0,6.85,2a.72.72,0,0,0-.16.69A1.08,1.08,0,0,0,5.94,3a1.43,1.43,0,0,0-.34-.31,2.05,2.05,0,0,0-1.22-.33A2.5,2.5,0,0,0,3.1,1.2a3.85,3.85,0,0,0-3.25.11A2,2,0,0,0-.49.94,2.4,2.4,0,0,0-3,.76a2.53,2.53,0,0,0-.64.42A4.15,4.15,0,0,0-6.48,6,3.28,3.28,0,0,0-4.35,8.67a1.42,1.42,0,0,0,.91-.08h0a1.38,1.38,0,0,0,1.22.07A1.16,1.16,0,0,0-1.57,8a6.23,6.23,0,0,0,3.81.25A4.33,4.33,0,0,0,4.32,7.15L4.44,7a3.77,3.77,0,0,0,2.2.08,1.65,1.65,0,0,0,.93-.61,3.75,3.75,0,0,0,2.49.07A2.89,2.89,0,0,0,12,4.74a5.16,5.16,0,0,0,2.26.18,1.41,1.41,0,0,0,1.12-.7.49.49,0,0,0,.06-.17,10.48,10.48,0,0,0,1.18.21,11,11,0,0,0,2.15.06A16.47,16.47,0,0,0,20.84,4a3,3,0,0,0,1.52-.57A.37.37,0,0,0,22.36,2.94Z"/><path class="cls-5" d="M72,6.31h-.18c1-.23,1-1.22-.13-1.55a10.44,10.44,0,0,0-2.81-.45,14.82,14.82,0,0,0-3.94.3,1.22,1.22,0,0,0-.65-.5,2.83,2.83,0,0,0-2.19.25,1.13,1.13,0,0,0-.73-1.17,1.43,1.43,0,0,0-1.63.58,1.37,1.37,0,0,0-.21.53,1.26,1.26,0,0,0-1.42.44,1.24,1.24,0,0,0-.45-.58,3.51,3.51,0,0,0-2.14-.37c-.63,0-2.74.55-2.47,1.44a1.33,1.33,0,0,0-.34,0,.62.62,0,0,0-.68.52,5.87,5.87,0,0,0-3.45.64,1.22,1.22,0,0,0-.07,2.23,4.86,4.86,0,0,0,1.76.65,12.11,12.11,0,0,0,2.54.33A12.55,12.55,0,0,0,56.21,9c.1.57,1.41.91,1.84,1,1.07.17,2.87.22,3.84-.56a5.13,5.13,0,0,0,2.44.27,3.37,3.37,0,0,0,1.26-.43,1.78,1.78,0,0,0,1.74-.12,1.93,1.93,0,0,0,.41-.4,12.69,12.69,0,0,0,3.74-.06c.67-.1,3.12-.33,2.94-1.24S72.66,6.38,72,6.31Z"/><path class="cls-5" d="M148.55,5.47A4.52,4.52,0,0,0,146.23,5h-.09c-1.26-1.6-5-1.86-6-.31a1.58,1.58,0,0,0-.73-.82,1.47,1.47,0,0,0-.73-.16,1.93,1.93,0,0,0-.3-1.19,2.05,2.05,0,0,0-2.08-.69,3,3,0,0,0-2,1.18,1,1,0,0,0-.19.46,2.7,2.7,0,0,0-1.53-.42,2.36,2.36,0,0,0-2.17,1.05,1,1,0,0,0-.06.66,1.13,1.13,0,0,0-1.29.1,1.86,1.86,0,0,0-.19-.33,2.58,2.58,0,0,0-2.35-.7c-.88.07-3,.79-3.24,1.86a.64.64,0,0,0-.25-.15.77.77,0,0,0-1,.6.06.06,0,0,1,0,0,4.47,4.47,0,0,0-3.91,1c-.72.7-.37,1.47.42,1.9a7.78,7.78,0,0,0,3.16.73,9.43,9.43,0,0,0,2.59-.32l.29-.07c.44.63,1.68.78,2.37.79a7.64,7.64,0,0,0,3-.51,3.35,3.35,0,0,0,2.38.88,3.5,3.5,0,0,0,2-.65,4.23,4.23,0,0,0,2.59.42,4.81,4.81,0,0,0,2-.76,2.74,2.74,0,0,0,.31-.23,13.73,13.73,0,0,0,5.53,0,10.33,10.33,0,0,0,3.79-1.25A1.51,1.51,0,0,0,148.55,5.47Z"/><path class="cls-5" d="M192.36,1.61A2.75,2.75,0,0,0,190,1.35c-.36-1.3-5.15-1.26-6.25-.91a5.56,5.56,0,0,0-1.18.6,3.05,3.05,0,0,0-1.3-.35,1.46,1.46,0,0,0-.94.33c0-.84-1-1.18-1.64-1.18a2.45,2.45,0,0,0-1.87.77.74.74,0,0,0-.16.7,1.08,1.08,0,0,0-.75.31,1.43,1.43,0,0,0-.34-.31A2.05,2.05,0,0,0,174.38,1,2.42,2.42,0,0,0,173.1-.13a3.85,3.85,0,0,0-3.25.11,1.72,1.72,0,0,0-.34-.37A2.4,2.4,0,0,0,167-.58a2.87,2.87,0,0,0-.64.43,4.14,4.14,0,0,0-2.81,4.8,3.27,3.27,0,0,0,2.13,2.68,1.36,1.36,0,0,0,.91-.08h0a1.41,1.41,0,0,0,1.22.07,1.13,1.13,0,0,0,.63-.69,6.15,6.15,0,0,0,3.81.24,4.23,4.23,0,0,0,2.08-1.06l.12-.13a3.69,3.69,0,0,0,2.2.09,1.71,1.71,0,0,0,.94-.61,3.78,3.78,0,0,0,2.48.07A2.92,2.92,0,0,0,182,3.41a5.16,5.16,0,0,0,2.26.18,1.41,1.41,0,0,0,1.12-.7.58.58,0,0,0,.06-.17c.39.1.81.15,1.18.21a11,11,0,0,0,2.15,0,14.87,14.87,0,0,0,2.11-.29,2.91,2.91,0,0,0,1.52-.57A.35.35,0,0,0,192.36,1.61Z"/><path class="cls-5" d="M242,5l-.18,0c.95-.22,1-1.21-.13-1.55A10.8,10.8,0,0,0,238.83,3a14.77,14.77,0,0,0-3.94.29,1.22,1.22,0,0,0-.65-.5,2.83,2.83,0,0,0-2.19.25,1.12,1.12,0,0,0-.73-1.16,1.43,1.43,0,0,0-1.63.58,1.26,1.26,0,0,0-.21.53,1.26,1.26,0,0,0-1.42.44,1.24,1.24,0,0,0-.45-.58,3.59,3.59,0,0,0-2.14-.38c-.63,0-2.74.55-2.47,1.44a2,2,0,0,0-.34,0,.62.62,0,0,0-.68.51,6,6,0,0,0-3.45.65,1.22,1.22,0,0,0-.07,2.23,5.06,5.06,0,0,0,1.76.65,12.81,12.81,0,0,0,2.54.33,12.2,12.2,0,0,0,3.45-.53c.1.58,1.41.92,1.84,1,1.07.16,2.87.22,3.84-.57a5.26,5.26,0,0,0,2.44.28,3.59,3.59,0,0,0,1.26-.44,1.75,1.75,0,0,0,1.74-.12,1.51,1.51,0,0,0,.41-.39,13.4,13.4,0,0,0,3.74-.06c.68-.1,3.12-.33,2.94-1.24S242.67,5.05,242,5Z"/><path class="cls-5" d="M318.55,4.14a4.48,4.48,0,0,0-2.31-.46h-.1c-1.26-1.61-5-1.86-6-.32a1.62,1.62,0,0,0-.73-.82,1.47,1.47,0,0,0-.73-.16,1.89,1.89,0,0,0-.3-1.18,2.08,2.08,0,0,0-2.08-.7,3.1,3.1,0,0,0-2,1.19,1,1,0,0,0-.19.45,2.62,2.62,0,0,0-1.53-.41,2.38,2.38,0,0,0-2.17,1,1,1,0,0,0-.06.66,1.13,1.13,0,0,0-1.29.1,1.63,1.63,0,0,0-.19-.34,2.58,2.58,0,0,0-2.35-.69c-.88.07-3,.79-3.24,1.85a1,1,0,0,0-.25-.15.77.77,0,0,0-1,.61.08.08,0,0,1,0,0,4.47,4.47,0,0,0-3.91,1c-.72.71-.37,1.48.42,1.9a7.67,7.67,0,0,0,3.16.74,9.43,9.43,0,0,0,2.59-.32l.29-.07c.44.63,1.68.78,2.37.79a7.83,7.83,0,0,0,3-.51,3.39,3.39,0,0,0,2.38.88,3.58,3.58,0,0,0,2-.65,4.22,4.22,0,0,0,2.59.41,4.74,4.74,0,0,0,2-.75c.1-.06.2-.15.31-.23a13.55,13.55,0,0,0,5.53,0,9.92,9.92,0,0,0,3.79-1.25A1.5,1.5,0,0,0,318.55,4.14Z"/><rect class="cls-1" x="-1.48" y="-3" width="151.66" height="55.42"/></g></g></g></svg>